<svg width="20" height="22" viewBox="0 0 20 22" fill="none" xmlns="http://www.w3.org/2000/svg">
<path d="M16.9133 9.17785L10.6633 15.506C10.5762 15.5945 10.4727 15.6647 10.3588 15.7126C10.2448 15.7605 10.1226 15.7852 9.99925 15.7852C9.87586 15.7852 9.75368 15.7605 9.63973 15.7126C9.52577 15.6647 9.42228 15.5945 9.33518 15.506L3.08518 9.17785C2.90906 8.99953 2.81012 8.75767 2.81012 8.50549C2.81012 8.2533 2.90906 8.01145 3.08518 7.83313C3.2613 7.6548 3.50017 7.55462 3.74925 7.55462C3.99832 7.55462 4.23719 7.6548 4.41331 7.83313L10 13.4897L15.5867 7.83234C15.7629 7.65401 16.0017 7.55383 16.2508 7.55383C16.4999 7.55383 16.7387 7.65401 16.9149 7.83234C17.091 8.01066 17.1899 8.25251 17.1899 8.5047C17.1899 8.75688 17.091 8.99874 16.9149 9.17706L16.9133 9.17785Z" fill="#141414" fill-opacity="0.8"/>
</svg>
